<?xml version="1.0" standalone="no"?>
<!DOCTYPE svg PUBLIC "-//W3C//DTD SVG 20010904//EN"
 "http://www.w3.org/TR/2001/REC-SVG-20010904/DTD/svg10.dtd">
<svg version="1.0" xmlns="http://www.w3.org/2000/svg"
 width="512.000000pt" height="512.000000pt" viewBox="0 0 512.000000 512.000000"
 preserveAspectRatio="xMidYMid meet">

<g transform="translate(0.000000,512.000000) scale(0.100000,-0.100000)"
fill="#000000" stroke="none">
<path d="M2375 4793 c-921 -80 -1711 -724 -1963 -1603 -68 -235 -87 -373 -86
-635 0 -249 16 -372 78 -598 206 -746 807 -1347 1553 -1553 224 -61 349 -77
598 -78 242 -1 343 11 559 65 621 155 1161 592 1453 1174 89 177 173 446 210
670 26 165 24 507 -5 675 -85 500 -304 918 -659 1261 -369 356 -836 571 -1343
618 -107 10 -303 12 -395 4z m562 -347 c394 -84 724 -264 999 -547 635 -654
723 -1646 214 -2407 -44 -67 -84 -123 -89 -126 -4 -3 -22 30 -40 73 -71 172
-183 334 -341 491 -110 110 -225 198 -353 270 l-57 32 20 27 c145 187 213 360
227 572 24 383 -197 754 -549 919 -151 71 -220 85 -408 84 -186 0 -258 -15
-395 -78 -269 -124 -457 -350 -537 -644 -31 -113 -31 -333 0 -457 28 -112 104
-269 171 -355 36 -46 47 -67 38 -73 -231 -142 -311 -203 -424 -321 -133 -138
-251 -313 -314 -467 -18 -43 -36 -76 -40 -73 -5 3 -45 59 -89 126 -414 618
-439 1408 -65 2043 270 460 732 794 1250 904 164 35 220 40 445 36 184 -3 233
-7 337 -29z m-243 -941 c289 -61 506 -329 506 -625 0 -297 -218 -565 -510
-626 -94 -20 -229 -14 -320 15 -312 98 -503 425 -435 745 72 341 416 564 759
491z m-489 -1515 c110 -47 203 -64 355 -64 152 0 245 17 356 64 57 25 73 21
224 -56 243 -124 434 -316 556 -557 39 -77 104 -248 104 -274 0 -14 -163 -134
-264 -194 -329 -196 -754 -294 -1127 -260 -403 37 -748 176 -1068 429 l-24 19
26 84 c76 246 242 481 444 633 102 77 314 190 365 195 3 1 27 -8 53 -19z"/>
</g>
</svg>
